<?xml version="1.0" encoding="utf-8"?>
<!-- Generator: Adobe Illustrator 16.0.0, SVG Export Plug-In . SVG Version: 6.00 Build 0)  -->
<!DOCTYPE svg PUBLIC "-//W3C//DTD SVG 1.1//EN" "http://www.w3.org/Graphics/SVG/1.1/DTD/svg11.dtd">
<svg version="1.1" id="Layer_1" xmlns="http://www.w3.org/2000/svg" xmlns:xlink="http://www.w3.org/1999/xlink" x="0px" y="0px"
	 width="242.91px" height="58.396px" viewBox="0 0 242.91 58.396" enable-background="new 0 0 242.91 58.396" xml:space="preserve">
<rect y="0" fill="none" width="242.91" height="58.396"/>
<path fill="#1590DE" d="M65.674,3.65c0-2.017,1.634-3.65,3.65-3.65c2.016,0,3.65,1.634,3.65,3.65c0,2.016-1.634,3.649-3.65,3.649
	C67.308,7.3,65.674,5.667,65.674,3.65"/>
<rect y="0" fill="none" width="242.91" height="58.396"/>
<path fill="#1590DE" d="M72.038,17.314V55.68c0,1.495-1.212,2.715-2.715,2.715c-1.496,0-2.716-1.22-2.716-2.715V17.314
	c0-1.497,1.22-2.715,2.716-2.715C70.826,14.599,72.038,15.817,72.038,17.314"/>
<rect y="0" fill="none" width="242.91" height="58.396"/>
<path fill="#1590DE" d="M112.938,29.676c-1.003-0.729-2.432-1.75-4.512-2.529c-2.113-0.792-4.607-1.781-7.705-2.874
	c-3.555-1.184-6.108-2.617-7.748-3.896c-2.008-1.641-3.165-3.736-3.165-6.291c0-5.743,3.439-8.643,10.002-8.643
	c4.831,0,8.797,1.579,11.898,4.678c0.981,1.133,2.696,1.257,3.83,0.275c1.133-0.982,1.257-2.697,0.275-3.83
	c-0.037-0.042-0.081-0.073-0.119-0.113C111.339,2.154,106.045,0,99.811,0c-4.559,0-8.252,1.415-11.077,4.24
	c-2.919,2.735-4.376,6.017-4.376,9.846c0,4.469,1.457,7.888,4.376,10.257c2.004,1.642,5.286,3.282,9.847,4.924
	c2.461,0.913,4.534,1.708,6.221,2.393c1.687,0.684,2.986,1.3,3.898,1.846c3.469,1.886,4.677,5.152,4.677,8.343
	c0,7.296-4.45,11.106-13.019,11.106c-3.921,0-7.021-1.031-9.299-2.765c-2.185-1.548-4.053-3.73-5.6-6.554l-0.001-0.002
	c0-0.001-0.001-0.001-0.001-0.001c-0.002-0.003-0.003-0.006-0.005-0.009l-0.001,0.001c-0.796-1.313-2.504-1.74-3.823-0.949
	c-1.318,0.791-1.747,2.499-0.962,3.82h-0.001c4.377,7.931,10.941,11.897,19.693,11.897c5.105,0,9.481-1.551,13.129-4.649
	c3.555-3.008,5.333-6.976,5.333-11.897C118.819,36.744,116.857,32.685,112.938,29.676"/>
<rect y="0" fill="none" width="242.91" height="58.396"/>
<path fill="#1590DE" d="M151.667,5.431c13.104,0,23.769,10.661,23.769,23.767s-10.664,23.767-23.769,23.767
	s-23.769-10.661-23.769-23.767S138.563,5.431,151.667,5.431 M151.667,0c-16.126,0-29.196,13.072-29.196,29.198
	c0,16.125,13.07,29.198,29.196,29.198c16.125,0,29.196-13.072,29.196-29.198S167.792,0,151.667,0"/>
<rect y="0" fill="none" width="242.91" height="58.396"/>
<path fill="#1590DE" d="M213.713,5.431c13.104,0,23.768,10.661,23.768,23.767s-10.662,23.767-23.768,23.767
	s-23.768-10.661-23.768-23.767S200.607,5.431,213.713,5.431 M213.713,0c-16.125,0-29.197,13.072-29.197,29.198
	c0,16.125,13.072,29.198,29.197,29.198c16.126,0,29.197-13.072,29.197-29.198S229.839,0,213.713,0"/>
<rect y="0" fill="none" width="242.91" height="58.396"/>
<path fill="#1590DE" d="M29.198,0C13.073,0,0,13.066,0,29.198c0,16.124,13.073,29.198,29.198,29.198h23.767h2.715
	c1.497,0,2.716-1.22,2.716-2.716v-2.716V29.198C58.396,13.066,45.322,0,29.198,0 M52.965,52.965H29.198
	c-13.103,0-23.767-10.665-23.767-23.768c0-13.11,10.664-23.767,23.767-23.767c13.102,0,23.767,10.656,23.767,23.767V52.965z"/>
</svg>
