<?xml version="1.0" encoding="utf-8"?>
<!-- Generator: Adobe Illustrator 16.0.0, SVG Export Plug-In . SVG Version: 6.00 Build 0)  -->
<!DOCTYPE svg PUBLIC "-//W3C//DTD SVG 1.1//EN" "http://www.w3.org/Graphics/SVG/1.1/DTD/svg11.dtd">
<svg version="1.1" id="Layer_2" xmlns="http://www.w3.org/2000/svg" xmlns:xlink="http://www.w3.org/1999/xlink" x="0px" y="0px"
	 width="48px" height="44.5px" viewBox="0 0 48 44.5" enable-background="new 0 0 48 44.5" xml:space="preserve">
<polyline fill="none" stroke="#C2C2C2" stroke-width="2" stroke-linejoin="round" stroke-miterlimit="10" points="38.833,9.345 
	9.134,21.936 38.833,34.526 "/>
<path fill="#FFFFFF" d="M15.872,21.936c0,3.721-3.018,6.735-6.737,6.735c-3.721,0-6.741-3.015-6.741-6.735
	c0-3.722,3.02-6.738,6.741-6.738C12.854,15.198,15.872,18.214,15.872,21.936"/>
<circle fill="none" stroke="#C2C2C2" stroke-width="2" stroke-linejoin="round" stroke-miterlimit="10" cx="9.132" cy="21.936" r="6.739"/>
<path fill="#FFFFFF" d="M45.572,9.345c0,3.722-3.017,6.737-6.732,6.737c-3.727,0-6.743-3.015-6.743-6.737
	c0-3.721,3.017-6.737,6.743-6.737C42.555,2.607,45.572,5.624,45.572,9.345"/>
<path fill="none" stroke="#C2C2C2" stroke-width="2" stroke-linejoin="round" stroke-miterlimit="10" d="M45.572,9.345
	c0,3.722-3.017,6.737-6.732,6.737c-3.727,0-6.743-3.015-6.743-6.737c0-3.721,3.017-6.737,6.743-6.737
	C42.555,2.607,45.572,5.624,45.572,9.345z"/>
<path fill="#FFFFFF" d="M45.572,34.526c0-3.72-3.017-6.736-6.732-6.736c-3.727,0-6.743,3.017-6.743,6.736
	c0,3.724,3.017,6.738,6.743,6.738C42.555,41.264,45.572,38.25,45.572,34.526"/>
<path fill="none" stroke="#C2C2C2" stroke-width="2" stroke-linejoin="round" stroke-miterlimit="10" d="M45.572,34.526
	c0-3.72-3.017-6.736-6.732-6.736c-3.727,0-6.743,3.017-6.743,6.736c0,3.724,3.017,6.738,6.743,6.738
	C42.555,41.264,45.572,38.25,45.572,34.526z"/>
<rect x="1.212" y="1.424" fill="none" width="45.542" height="41.022"/>
</svg>
