<?xml version="1.0" encoding="utf-8"?>
<!-- Generator: Adobe Illustrator 16.0.0, SVG Export Plug-In . SVG Version: 6.00 Build 0)  -->
<!DOCTYPE svg PUBLIC "-//W3C//DTD SVG 1.1//EN" "http://www.w3.org/Graphics/SVG/1.1/DTD/svg11.dtd">
<svg version="1.1" id="Layer_1" xmlns="http://www.w3.org/2000/svg" xmlns:xlink="http://www.w3.org/1999/xlink" x="0px" y="0px"
	 width="20px" height="120px" viewBox="0 0 20 120" enable-background="new 0 0 20 120" xml:space="preserve">
<rect y="100" fill="#5B5B63" width="20" height="20"/>
<rect y="40" fill="#3B5998" width="20" height="20"/>
<rect y="80" fill="#FFCA13" width="20" height="20"/>
<g>
	<rect fill="#FAE300" width="20" height="20"/>
	<g>
		<path fill="#391B1B" d="M9.926,3.096c-4.265,0-7.722,2.732-7.722,6.104c0,2.195,1.464,4.118,3.663,5.193
			c-0.161,0.604-0.584,2.185-0.669,2.523c-0.104,0.42,0.154,0.414,0.323,0.301c0.133-0.088,2.116-1.437,2.972-2.019
			c0.464,0.069,0.943,0.105,1.434,0.105c4.264,0,7.721-2.733,7.721-6.104C17.646,5.828,14.189,3.096,9.926,3.096"/>
		<g>
			<path fill="#FAE300" d="M6.818,7.402H4.56c-0.212,0-0.384,0.172-0.384,0.384c0,0.212,0.172,0.384,0.384,0.384h0.734v2.705
				c0,0.098,0.04,0.195,0.111,0.265c0.069,0.069,0.165,0.11,0.264,0.11h0.082c0.098,0,0.194-0.041,0.263-0.109
				c0.07-0.07,0.111-0.167,0.111-0.266V8.17h0.693c0.212,0,0.384-0.172,0.384-0.384C7.202,7.574,7.03,7.402,6.818,7.402z"/>
			<path fill="#FAE300" d="M12.244,10.527h-1.05V7.765c0-0.23-0.187-0.417-0.416-0.417c-0.23,0-0.417,0.187-0.417,0.417v2.978
				c0,0.023,0.003,0.045,0.006,0.067c-0.004,0.021-0.006,0.044-0.006,0.066c0,0.193,0.155,0.349,0.349,0.349h1.534
				c0.193,0,0.349-0.156,0.349-0.349C12.593,10.684,12.438,10.527,12.244,10.527z"/>
			<path fill="#FAE300" d="M15.6,10.654l-1.17-1.537l1.057-1.058c0.144-0.143,0.144-0.375,0-0.519c-0.143-0.143-0.375-0.143-0.519,0
				L13.659,8.85V7.765c0-0.23-0.187-0.417-0.417-0.417c-0.229,0-0.416,0.187-0.416,0.417v3.069c0,0.23,0.187,0.416,0.416,0.416
				c0.23,0,0.417-0.186,0.417-0.416V9.887l0.238-0.237l1.106,1.452c0.123,0.164,0.357,0.198,0.521,0.074
				C15.689,11.053,15.723,10.818,15.6,10.654z"/>
			<path fill="#FAE300" d="M10.049,10.754L8.924,7.675c0,0-0.002-0.002-0.004-0.003C8.848,7.484,8.641,7.348,8.393,7.348
				c-0.273,0-0.502,0.168-0.547,0.388C7.838,7.751,7.831,7.768,7.824,7.786l-1.105,2.968c-0.068,0.194,0.033,0.407,0.228,0.476
				s0.407-0.034,0.476-0.229l0.191-0.546h1.541l0.191,0.546c0.068,0.194,0.281,0.297,0.476,0.229S10.117,10.948,10.049,10.754z
				 M7.858,9.757L8.375,8.28c0.006,0,0.012,0.002,0.018,0.002l0.517,1.475H7.858z"/>
		</g>
	</g>
</g>
<g>
	<rect y="20" fill="#00C200" width="20" height="20"/>
	<g>
		<path fill="#FFFFFF" d="M17.259,29.638c0.034-0.177,0.05-0.326,0.058-0.443c0.013-0.192-0.001-0.479-0.007-0.568
			c-0.177-3.09-3.383-5.552-7.312-5.552c-4.043,0-7.32,2.606-7.32,5.822c0,2.955,2.769,5.396,6.355,5.771
			c0.22,0.023,0.378,0.221,0.354,0.44l-0.152,1.374c-0.035,0.313,0.287,0.539,0.57,0.403c3.03-1.463,4.843-2.968,5.925-4.271
			c0.196-0.236,0.839-1.137,0.97-1.372C16.978,30.74,17.169,30.201,17.259,29.638z"/>
		<path fill="#00C500" d="M5.973,30.075v-2.452c0-0.207-0.167-0.374-0.374-0.374l0,0c-0.207,0-0.375,0.167-0.375,0.374v2.827
			c0,0.207,0.167,0.374,0.375,0.374h1.497c0.207,0,0.375-0.167,0.375-0.374l0,0c0-0.207-0.168-0.375-0.375-0.375H5.973z"/>
		<path fill="#00C500" d="M8.283,30.824H8.119c-0.162,0-0.293-0.131-0.293-0.292v-2.991c0-0.161,0.131-0.292,0.293-0.292h0.164
			c0.161,0,0.292,0.131,0.292,0.292v2.991C8.575,30.693,8.444,30.824,8.283,30.824z"/>
		<path fill="#00C500" d="M11.309,27.623v1.727c0,0-1.496-1.95-1.519-1.976c-0.071-0.08-0.177-0.13-0.294-0.125
			c-0.203,0.008-0.359,0.186-0.359,0.39v2.812c0,0.206,0.168,0.374,0.375,0.374l0,0c0.206,0,0.374-0.168,0.374-0.374v-1.717
			c0,0,1.518,1.968,1.54,1.989c0.066,0.063,0.155,0.102,0.254,0.102c0.207,0.002,0.378-0.182,0.378-0.39v-2.812
			c0-0.207-0.168-0.374-0.375-0.374l0,0C11.476,27.249,11.309,27.416,11.309,27.623z"/>
		<path fill="#00C500" d="M14.865,27.623L14.865,27.623c0-0.207-0.167-0.374-0.374-0.374h-1.498c-0.207,0-0.374,0.167-0.374,0.374
			v2.827c0,0.207,0.167,0.374,0.374,0.374h1.498c0.207,0,0.374-0.167,0.374-0.374l0,0c0-0.207-0.167-0.375-0.374-0.375h-1.124
			v-0.664h1.124c0.207,0,0.374-0.168,0.374-0.375l0,0c0-0.206-0.167-0.374-0.374-0.374h-1.124v-0.664h1.124
			C14.698,27.998,14.865,27.83,14.865,27.623z"/>
	</g>
</g>
<path fill="#FFFFFF" d="M12.439,50.392h-1.785v6.537H7.952v-6.537H6.666v-2.298h1.286v-1.486c0-1.063,0.505-2.728,2.728-2.728
	l2.002,0.008v2.23h-1.453c-0.238,0-0.573,0.119-0.573,0.626v1.352h2.02L12.439,50.392z"/>
<g>
	<rect y="60" fill="#50ABF1" width="20" height="20"/>
	<path fill="#FFFFFF" d="M2.649,74.826c1.331,0.844,2.91,1.333,4.603,1.333c4.755,0,8.609-3.855,8.609-8.609
		c0-0.119-0.002-0.236-0.007-0.354c0.172-0.135,1.235-0.988,1.496-1.536c0,0-0.863,0.359-1.709,0.443c-0.001,0-0.004,0-0.005,0
		c0,0,0.001-0.001,0.004-0.003c0.078-0.052,1.168-0.793,1.314-1.677c0,0-0.61,0.326-1.467,0.612
		c-0.141,0.047-0.289,0.093-0.442,0.136c-0.551-0.588-1.335-0.956-2.205-0.956c-1.669,0-3.021,1.352-3.021,3.02
		c0,0.235,0.027,0.464,0.078,0.684c-0.233-0.01-3.785-0.208-6.201-3.134c0,0-1.443,1.971,0.86,3.998c0,0-0.7-0.028-1.305-0.389
		c0,0-0.222,2.388,2.388,2.999c0,0-0.514,0.194-1.332,0.056c0,0,0.458,1.93,2.776,2.11C7.085,73.558,5.252,75.214,2.649,74.826
		L2.649,74.826z"/>
</g>
<path fill="#FFFFFF" d="M12.723,83.923H7.709c-0.336,0-0.61,0.271-0.61,0.606v4.972c0,0.335,0.274,0.606,0.61,0.606h2.311
	c-0.016,0.591-0.264,1.235-0.621,1.806c-0.402,0.643-1.26,1.354-1.268,1.36c-0.067,0.065-0.117,0.139-0.118,0.244
	c-0.001,0.079,0.04,0.14,0.085,0.205L9.71,95.53c0,0,0.079,0.082,0.143,0.097c0.073,0.018,0.156,0.02,0.213-0.024
	c2.792-2.146,3.194-4.838,3.266-6.294c0-0.009,0-4.779,0-4.779C13.332,84.195,13.059,83.923,12.723,83.923"/>
<path fill="#FFFFFF" d="M14.576,103.607H5.275c-1.396,0-2.532,1.201-2.532,2.676c0,1.487,1.112,2.653,2.532,2.653h9.301
	c1.421,0,2.533-1.166,2.533-2.653C17.109,104.809,15.973,103.607,14.576,103.607 M14.517,108.564H5.335
	c-1.215,0-2.201-1.022-2.201-2.28c0-1.272,0.986-2.306,2.201-2.306h9.182c1.215,0,2.202,1.034,2.202,2.306
	C16.719,107.542,15.731,108.564,14.517,108.564 M6.566,106.214c0.198-0.13,0.304-0.348,0.304-0.632c0-0.394-0.269-0.816-0.856-0.816
	H5.111c-0.256,0-0.436,0.184-0.436,0.447v2.129c0,0.265,0.176,0.444,0.436,0.444h0.914c0.576,0,0.921-0.333,0.921-0.891
	C6.946,106.577,6.806,106.328,6.566,106.214 M5.302,105.396h0.619c0.228,0,0.323,0.081,0.323,0.275c0,0.188-0.104,0.281-0.323,0.281
	H5.302V105.396z M5.962,107.162h-0.66v-0.631H5.97c0.159,0,0.348,0.055,0.348,0.316C6.317,107.061,6.204,107.162,5.962,107.162
	 M9.052,105.152c-0.097-0.272-0.304-0.429-0.569-0.429c-0.265,0-0.469,0.156-0.564,0.429l-0.763,2.203
	c-0.057,0.167,0.022,0.361,0.174,0.419c0.036,0.017,0.075,0.022,0.113,0.022c0.127,0,0.245-0.083,0.294-0.208l0.212-0.646h1.065
	l0.211,0.646c0.041,0.122,0.157,0.205,0.29,0.205c0.04,0,0.08-0.008,0.116-0.024c0.149-0.059,0.231-0.254,0.175-0.415L9.052,105.152
	z M8.138,106.357l0.312-0.948c0.003-0.004,0.011-0.024,0.033-0.024c0.014,0,0.024,0.011,0.028,0.026l0.309,0.946H8.138z
	 M14.044,104.766h-0.613c-0.264,0-0.435,0.17-0.435,0.437v2.139c0,0.262,0.178,0.444,0.435,0.444h0.613
	c0.827,0,1.313-0.461,1.369-1.3c0.006-0.104,0.011-0.27-0.004-0.455C15.354,105.214,14.87,104.766,14.044,104.766 M14.784,106.459
	c-0.028,0.458-0.273,0.689-0.729,0.689H13.62v-1.747h0.436c0.469,0,0.707,0.235,0.733,0.721
	C14.793,106.235,14.792,106.358,14.784,106.459 M12.278,104.749c-0.175,0-0.311,0.144-0.311,0.331v1.77l-0.985-1.829
	c-0.096-0.174-0.256-0.265-0.437-0.265c-0.281,0-0.476,0.211-0.476,0.514v2.205c0,0.18,0.144,0.335,0.313,0.335
	c0.173,0,0.308-0.146,0.308-0.335v-1.825l1.017,1.878c0.125,0.226,0.316,0.274,0.446,0.274c0.247,0,0.434-0.205,0.434-0.477v-2.246
	C12.588,104.893,12.452,104.749,12.278,104.749"/>
<rect x="0.001" y="112.738" fill="#68BF7E" width="19.998" height="3.345"/>
</svg>
