<?xml version="1.0" encoding="utf-8"?>
<!-- Generator: Adobe Illustrator 16.0.0, SVG Export Plug-In . SVG Version: 6.00 Build 0)  -->
<!DOCTYPE svg PUBLIC "-//W3C//DTD SVG 1.1//EN" "http://www.w3.org/Graphics/SVG/1.1/DTD/svg11.dtd">
<svg version="1.1" id="Capa_1" xmlns="http://www.w3.org/2000/svg" xmlns:xlink="http://www.w3.org/1999/xlink" x="0px" y="0px"
	 width="560px" height="385px" viewBox="470 87.5 560 385" enable-background="new 470 87.5 560 385" xml:space="preserve">
<g>
	<g>
		<path fill="#FFFFFF" d="M1006.2,124.6c-15.19-27.02-31.675-31.99-65.24-33.88c-33.53-2.275-117.845-3.22-190.89-3.22
			c-73.186,0-157.535,0.944-191.03,3.185c-33.495,1.925-50.015,6.86-65.345,33.915C478.05,151.585,470,198.065,470,279.895
			c0,0.07,0,0.105,0,0.105c0,0.069,0,0.104,0,0.104v0.07c0,81.479,8.05,128.31,23.695,155.015
			c15.33,27.021,31.814,31.92,65.31,34.195c33.53,1.96,117.88,3.115,191.065,3.115c73.045,0,157.359-1.155,190.925-3.08
			c33.564-2.275,50.05-7.176,65.24-34.195C1022.021,408.52,1030,361.69,1030,280.21c0,0,0-0.105,0-0.175c0,0,0-0.07,0-0.105
			C1030,198.065,1022.021,151.585,1006.2,124.6z M680,385V175l175,105L680,385z"/>
	</g>
</g>
</svg>
