<?xml version="1.0" encoding="utf-8"?>
<!-- Generator: Adobe Illustrator 16.0.0, SVG Export Plug-In . SVG Version: 6.00 Build 0)  -->
<!DOCTYPE svg PUBLIC "-//W3C//DTD SVG 1.1//EN" "http://www.w3.org/Graphics/SVG/1.1/DTD/svg11.dtd">
<svg version="1.1" id="Layer_1" xmlns="http://www.w3.org/2000/svg" xmlns:xlink="http://www.w3.org/1999/xlink" x="0px" y="0px"
	 width="512px" height="512px" viewBox="0 0 512 512" enable-background="new 0 0 512 512" xml:space="preserve">
<path fill="#FFFFFF" d="M261.039,512c-1.695,0-3.391,0-5.098-0.008c-40.133,0.098-77.215-0.922-113.277-3.117
	c-33.063-2.012-63.242-13.438-87.281-33.039c-23.195-18.914-39.035-44.488-47.078-76.004c-7-27.438-7.371-54.371-7.727-80.422
	C0.32,300.719,0.055,278.571,0,256.047c0.055-22.617,0.32-44.766,0.578-63.457c0.355-26.047,0.727-52.98,7.727-80.422
	c8.043-31.516,23.883-57.09,47.078-76.004c24.039-19.602,54.219-31.027,87.285-33.039C178.73,0.934,215.82-0.09,256.039,0.008
	c40.145-0.086,77.215,0.926,113.277,3.117c33.063,2.012,63.242,13.438,87.281,33.039c23.199,18.914,39.035,44.488,47.078,76.004
	c7,27.438,7.371,54.375,7.727,80.422c0.258,18.691,0.527,40.84,0.578,63.363v0.094c-0.051,22.523-0.32,44.672-0.578,63.363
	c-0.355,26.047-0.723,52.98-7.727,80.422c-8.043,31.516-23.879,57.09-47.078,76.004c-24.039,19.602-54.219,31.027-87.281,33.039
	C334.781,510.977,299.305,512,261.039,512z M255.941,471.992c39.48,0.094,75.73-0.902,110.945-3.043
	c25-1.52,46.676-9.633,64.434-24.113c16.414-13.387,27.719-31.855,33.598-54.895c5.828-22.84,6.164-47.363,6.488-71.078
	c0.254-18.566,0.52-40.559,0.574-62.863c-0.055-22.309-0.32-44.297-0.574-62.863c-0.324-23.715-0.66-48.238-6.488-71.082
	c-5.879-23.039-17.184-41.508-33.598-54.895c-17.758-14.477-39.434-22.59-64.434-24.109c-35.215-2.145-71.465-3.133-110.852-3.047
	c-39.473-0.094-75.727,0.902-110.941,3.047c-25,1.52-46.676,9.633-64.434,24.109c-16.414,13.387-27.719,31.855-33.598,54.895
	c-5.828,22.844-6.164,47.363-6.488,71.082c-0.254,18.582-0.52,40.586-0.574,62.91c0.055,22.227,0.32,44.234,0.574,62.816
	c0.324,23.715,0.66,48.238,6.488,71.078c5.879,23.039,17.184,41.508,33.598,54.895c17.758,14.477,39.434,22.59,64.434,24.109
	C180.309,471.09,216.57,472.09,255.941,471.992z M254.988,381c-68.922,0-125-56.074-125-125s56.078-125,125-125
	c68.926,0,125,56.074,125,125S323.914,381,254.988,381z M254.988,171c-46.867,0-85,38.133-85,85s38.133,85,85,85
	c46.871,0,85-38.133,85-85S301.859,171,254.988,171z M393.988,91c-16.566,0-30,13.43-30,30s13.434,30,30,30c16.57,0,30-13.43,30-30
	S410.559,91,393.988,91z"/>
</svg>
