<svg width="24" height="24" viewBox="0 0 24 24" fill="none" xmlns="http://www.w3.org/2000/svg">
<path d="M11.25 3L11.2539 2.92285C11.2925 2.54488 11.6118 2.25 12 2.25C12.3882 2.25 12.7075 2.54488 12.7461 2.92285L12.75 3L12.75 21C12.75 21.4142 12.4142 21.75 12 21.75C11.5858 21.75 11.25 21.4142 11.25 21L11.25 3Z" fill="#363636"/>
<path d="M3 12.75L2.92285 12.7461C2.54488 12.7075 2.25 12.3882 2.25 12C2.25 11.6118 2.54488 11.2925 2.92285 11.2539L3 11.25L21 11.25C21.4142 11.25 21.75 11.5858 21.75 12C21.75 12.4142 21.4142 12.75 21 12.75L3 12.75Z" fill="#363636"/>
</svg>
