<svg width="24" height="24" viewBox="0 0 24 24" fill="none" xmlns="http://www.w3.org/2000/svg">
<path d="M7.46976 12.5306L7.41797 12.4732C7.17786 12.1787 7.19523 11.7444 7.46976 11.4699C7.74429 11.1954 8.17853 11.178 8.4731 11.4181L8.53042 11.4699L16.5303 19.4697C16.8231 19.7626 16.8231 20.2375 16.5303 20.5304C16.2374 20.8233 15.7625 20.8233 15.4696 20.5304L7.46976 12.5306Z" fill="#363636"/>
<path d="M8.53042 12.5302L8.4731 12.582C8.17852 12.8221 7.74429 12.8051 7.46976 12.5306C7.19523 12.256 7.17786 11.8215 7.41796 11.5269L7.46976 11.4699L15.4696 3.46973C15.7625 3.17684 16.2374 3.17684 16.5303 3.46973C16.8231 3.76262 16.8231 4.2375 16.5303 4.53039L8.53042 12.5302Z" fill="#363636"/>
</svg>
