<svg width="24" height="24" viewBox="0 0 24 24" fill="none" xmlns="http://www.w3.org/2000/svg">
<path d="M16.5302 12.5305L16.582 12.4732C16.8221 12.1786 16.8047 11.7444 16.5302 11.4698C16.2556 11.1953 15.8214 11.1779 15.5268 11.418L15.4695 11.4698L7.46967 19.4697C7.17678 19.7626 7.17678 20.2374 7.46967 20.5303C7.76256 20.8232 8.23744 20.8232 8.53033 20.5303L16.5302 12.5305Z" fill="#363636"/>
<path d="M15.4695 12.5302L15.5268 12.582C15.8214 12.8221 16.2556 12.805 16.5302 12.5305C16.8047 12.256 16.8221 11.8214 16.582 11.5268L16.5302 11.4698L8.53033 3.46967C8.23744 3.17678 7.76256 3.17678 7.46967 3.46967C7.17678 3.76256 7.17678 4.23744 7.46967 4.53033L15.4695 12.5302Z" fill="#363636"/>
</svg>
